<?xml version="1.0" standalone="no"?><!DOCTYPE svg PUBLIC "-//W3C//DTD SVG 1.1//EN" "http://www.w3.org/Graphics/SVG/1.1/DTD/svg11.dtd"><svg class="icon" width="200px" height="200.00px" viewBox="0 0 1024 1024" version="1.1" xmlns="http://www.w3.org/2000/svg"><path fill="#333333" d="M405.333333 682.666667V341.333333c0-46.933333 38.4-85.333333 85.333334-85.333333h384V213.333333c0-46.933333-38.4-85.333333-85.333334-85.333333h-597.333333c-46.933333 0-85.333333 38.4-85.333333 85.333333v597.333334c0 46.933333 38.4 85.333333 85.333333 85.333333h597.333333c46.933333 0 85.333333-38.4 85.333334-85.333333v-42.666667h-384c-46.933333 0-85.333333-38.4-85.333334-85.333333z m128-341.333334c-25.6 0-42.666667 17.066667-42.666666 42.666667v256c0 25.6 17.066667 42.666667 42.666666 42.666667h384V341.333333h-384z m128 234.666667c-34.133333 0-64-29.866667-64-64s29.866667-64 64-64 64 29.866667 64 64-29.866667 64-64 64z" /></svg>