<?xml version="1.0" standalone="no"?><!DOCTYPE svg PUBLIC "-//W3C//DTD SVG 1.1//EN" "http://www.w3.org/Graphics/SVG/1.1/DTD/svg11.dtd"><svg t="1577067775768" class="icon" viewBox="0 0 1024 1024" version="1.1" xmlns="http://www.w3.org/2000/svg" p-id="6347" xmlns:xlink="http://www.w3.org/1999/xlink" width="200" height="200"><defs><style type="text/css"></style></defs><path d="M908.8 719.36c-30.72 92.16-81.92 145.92-135.68 145.92-25.6 0-38.4-10.24-53.76-20.48-17.92-15.36-40.96-30.72-89.6-30.72-51.2 0-74.24 15.36-94.72 30.72-17.92 12.8-33.28 23.04-69.12 23.04-71.68 0-99.84-125.44-107.52-166.4 66.56-5.12 120.32-28.16 156.16-66.56 33.28-35.84 48.64-84.48 43.52-138.24-7.68-107.52-99.84-166.4-181.76-166.4-7.68 0-12.8 5.12-12.8 12.8s5.12 12.8 12.8 12.8c71.68 0 148.48 51.2 156.16 143.36 2.56 48.64-10.24 89.6-38.4 120.32-35.84 38.4-97.28 58.88-168.96 58.88-110.08 0-186.88-23.04-230.4-40.96-25.6-158.72 28.16-332.8 181.76-401.92 189.44-84.48 389.12-71.68 535.04 35.84C939.52 366.08 957.44 573.44 908.8 719.36zM332.8 704c0 5.12 2.56 7.68 2.56 15.36-5.12-5.12-12.8-10.24-20.48-15.36 2.56 0 7.68 0 10.24 0C327.68 704 330.24 704 332.8 704zM256 865.28c-51.2 0-92.16-35.84-125.44-107.52C117.76 729.6 110.08 698.88 102.4 665.6c33.28 12.8 79.36 25.6 140.8 33.28-28.16 12.8-51.2 38.4-51.2 69.12 0 7.68 5.12 12.8 12.8 12.8s12.8-5.12 12.8-12.8c0-28.16 30.72-48.64 56.32-48.64 35.84 0 66.56 28.16 66.56 64C340.48 829.44 302.08 865.28 256 865.28zM983.04 499.2l-66.56-138.24 0 0c-20.48-43.52-48.64-81.92-87.04-110.08-153.6-112.64-363.52-128-558.08-38.4C107.52 286.72 48.64 460.8 69.12 624.64c-7.68-5.12-12.8-7.68-12.8-7.68-5.12-2.56-10.24 0-15.36 5.12-2.56 5.12-2.56 12.8 2.56 17.92 0 0 10.24 7.68 30.72 15.36 7.68 38.4 17.92 76.8 35.84 115.2C153.6 870.4 215.04 890.88 256 890.88c53.76 0 97.28-35.84 104.96-87.04 20.48 46.08 53.76 89.6 102.4 89.6 43.52 0 64-15.36 84.48-28.16 17.92-12.8 38.4-25.6 79.36-25.6s56.32 12.8 74.24 25.6c17.92 12.8 33.28 25.6 69.12 25.6 66.56 0 125.44-61.44 158.72-163.84 23.04-69.12 30.72-151.04 23.04-227.84l5.12 12.8c2.56 5.12 7.68 7.68 10.24 7.68 2.56 0 2.56 0 5.12 0C983.04 514.56 985.6 506.88 983.04 499.2z" p-id="6348"></path><path d="M204.8 460.8c-33.28 0-33.28 51.2 0 51.2S238.08 460.8 204.8 460.8" p-id="6349"></path><path d="M204.8 460.8c-33.28 0-33.28 51.2 0 51.2S238.08 460.8 204.8 460.8" p-id="6350"></path></svg>