<?xml version="1.0" standalone="no"?><!DOCTYPE svg PUBLIC "-//W3C//DTD SVG 1.1//EN" "http://www.w3.org/Graphics/SVG/1.1/DTD/svg11.dtd"><svg class="icon" width="200px" height="200.00px" viewBox="0 0 1024 1024" version="1.1" xmlns="http://www.w3.org/2000/svg"><path fill="#333333" d="M810.666667 170.666667h-179.2c-17.066667-51.2-64-85.333333-119.466667-85.333334s-102.4 34.133333-119.466667 85.333334H213.333333c-46.933333 0-85.333333 38.4-85.333333 85.333333v597.333333c0 46.933333 38.4 85.333333 85.333333 85.333334h597.333334c46.933333 0 85.333333-38.4 85.333333-85.333334V256c0-46.933333-38.4-85.333333-85.333333-85.333333z m-298.666667 0c25.6 0 42.666667 17.066667 42.666667 42.666666s-17.066667 42.666667-42.666667 42.666667-42.666667-17.066667-42.666667-42.666667 17.066667-42.666667 42.666667-42.666666z m42.666667 597.333333H341.333333c-25.6 0-42.666667-21.333333-42.666666-42.666667s17.066667-42.666667 42.666666-42.666666h213.333334c25.6 0 42.666667 21.333333 42.666666 42.666666s-17.066667 42.666667-42.666666 42.666667z m128-170.666667H341.333333c-25.6 0-42.666667-17.066667-42.666666-42.666666s17.066667-42.666667 42.666666-42.666667h341.333334c21.333333 0 42.666667 17.066667 42.666666 42.666667s-21.333333 42.666667-42.666666 42.666666z m0-170.666666H341.333333c-25.6 0-42.666667-17.066667-42.666666-42.666667s17.066667-42.666667 42.666666-42.666667h341.333334c21.333333 0 42.666667 17.066667 42.666666 42.666667s-21.333333 42.666667-42.666666 42.666667z" /></svg>