<?xml version="1.0" standalone="no"?><!DOCTYPE svg PUBLIC "-//W3C//DTD SVG 1.1//EN" "http://www.w3.org/Graphics/SVG/1.1/DTD/svg11.dtd"><svg t="1577067582268" class="icon" viewBox="0 0 1024 1024" version="1.1" xmlns="http://www.w3.org/2000/svg" p-id="7424" xmlns:xlink="http://www.w3.org/1999/xlink" width="200" height="200"><defs><style type="text/css"></style></defs><path d="M496 960H112a32 32 0 0 1-32-32V384a32 32 0 0 1 32-32h384a32 32 0 0 1 32 32v544a32 32 0 0 1-32 32z" fill="#54FEBD" p-id="7425"></path><path d="M432 1024H48c-26.464 0-48-21.536-48-48V432c0-26.464 21.536-48 48-48h384c26.464 0 48 21.536 48 48v544c0 26.464-21.536 48-48 48zM48 416a16 16 0 0 0-16 16v544a16 16 0 0 0 16 16h384a16 16 0 0 0 16-16V432a16 16 0 0 0-16-16H48z" fill="#1D1B4C" p-id="7426"></path><path d="M816 1024H432a16 16 0 1 1 0-32h384a16 16 0 0 0 16-16V48a16 16 0 0 0-16-16H208a16 16 0 0 0-16 16v352a16 16 0 1 1-32 0V48c0-26.464 21.536-48 48-48h608c26.464 0 48 21.536 48 48v928c0 26.464-21.536 48-48 48z" fill="#1D1B4C" p-id="7427"></path><path d="M400 576H80a16 16 0 0 1-16-16v-96a16 16 0 0 1 16-16h320a16 16 0 0 1 16 16v96a16 16 0 0 1-16 16zM96 544h288v-64H96v64zM112 704c-26.464 0-48-21.536-48-48s21.536-48 48-48 48 21.536 48 48-21.536 48-48 48z m0-64a16 16 0 1 0 0.016 32.016A16 16 0 0 0 112 640zM240 704c-26.464 0-48-21.536-48-48s21.536-48 48-48 48 21.536 48 48-21.536 48-48 48z m0-64a16 16 0 1 0 0.016 32.016A16 16 0 0 0 240 640zM368 704c-26.464 0-48-21.536-48-48s21.536-48 48-48 48 21.536 48 48-21.536 48-48 48z m0-64a16 16 0 1 0 0.016 32.016A16 16 0 0 0 368 640zM112 832c-26.464 0-48-21.536-48-48s21.536-48 48-48 48 21.536 48 48-21.536 48-48 48z m0-64a16 16 0 1 0 0.016 32.016A16 16 0 0 0 112 768zM240 832c-26.464 0-48-21.536-48-48s21.536-48 48-48 48 21.536 48 48-21.536 48-48 48z m0-64a16 16 0 1 0 0.016 32.016A16 16 0 0 0 240 768zM368 832c-26.464 0-48-21.536-48-48s21.536-48 48-48 48 21.536 48 48-21.536 48-48 48z m0-64a16 16 0 1 0 0.016 32.016A16 16 0 0 0 368 768zM240 960c-26.464 0-48-21.536-48-48s21.536-48 48-48 48 21.536 48 48-21.536 48-48 48z m0-64a16 16 0 1 0 0.016 32.016A16 16 0 0 0 240 896zM368 960c-26.464 0-48-21.536-48-48s21.536-48 48-48 48 21.536 48 48-21.536 48-48 48z m0-64a16 16 0 1 0 0.016 32.016A16 16 0 0 0 368 896zM112 960c-26.464 0-48-21.536-48-48s21.536-48 48-48 48 21.536 48 48-21.536 48-48 48z m0-64a16 16 0 1 0 0.016 32.016A16 16 0 0 0 112 896zM496 128H272a16 16 0 1 1 0-32h224a16 16 0 1 1 0 32zM368 192h-96a16 16 0 1 1 0-32h96a16 16 0 1 1 0 32zM784 640h-96a16 16 0 0 1-16-16V240a16 16 0 0 1 16-16h96a16 16 0 0 1 16 16v384a16 16 0 0 1-16 16z m-80-32h64V256h-64v352zM624 640h-96a16 16 0 0 1-16-16V400a16 16 0 0 1 16-16h96a16 16 0 0 1 16 16v224a16 16 0 0 1-16 16z m-80-32h64V416h-64v192zM784 704H464a16 16 0 1 1 0-32h320a16 16 0 1 1 0 32zM784 768H464a16 16 0 1 1 0-32h320a16 16 0 1 1 0 32zM608 832h-144a16 16 0 1 1 0-32h144a16 16 0 1 1 0 32zM656 832c-4.16 0-8.32-1.76-11.36-4.64-2.88-3.04-4.64-7.2-4.64-11.36s1.76-8.32 4.64-11.36c6.08-5.92 16.8-5.92 22.72 0 2.88 3.04 4.64 7.2 4.64 11.36 0 4.32-1.76 8.32-4.8 11.36-2.88 2.88-6.88 4.64-11.2 4.64zM720 832a16 16 0 0 1-11.36-4.8 15.552 15.552 0 0 1-4.64-11.2c0-4.32 1.76-8.32 4.64-11.36 5.92-5.92 16.8-5.92 22.72 0 2.88 3.04 4.64 7.2 4.64 11.36 0 4.32-1.76 8.32-4.64 11.36-3.04 2.88-7.04 4.64-11.36 4.64zM784 832a16 16 0 0 1-11.36-4.8 15.84 15.84 0 0 1-4.64-11.2c0-4.16 1.76-8.32 4.64-11.36 5.92-5.92 16.64-5.92 22.72 0 2.88 3.04 4.64 7.2 4.64 11.36 0 4.32-1.76 8.32-4.64 11.36-3.04 2.88-7.2 4.64-11.36 4.64zM960 1024a16 16 0 0 1-14.32-8.848l-48-96A16 16 0 0 1 896 912V272c0-26.464 21.536-48 48-48h32c26.464 0 48 21.536 48 48v640a16 16 0 0 1-1.68 7.152l-48 96A16 16 0 0 1 960 1024z m-32-115.776l32 64 32-64V272a16 16 0 0 0-16-16h-32a16 16 0 0 0-16 16v636.224z" fill="#1D1B4C" p-id="7428"></path><path d="M1008 400h-96a16 16 0 1 1 0-32h96a16 16 0 1 1 0 32zM1008 928h-96a16 16 0 1 1 0-32h96a16 16 0 1 1 0 32z" fill="#1D1B4C" p-id="7429"></path></svg>