<svg xmlns="http://www.w3.org/2000/svg" class="icon" viewBox="0 0 1024 1024" width="200" height="200" t="1577075440543" p-id="2255" version="1.1"><path d="M 950.4 456.96 c -0.64 -1.28 -0.64 -2.56 -1.28 -3.2 l -188.16 -188.16 C 753.28 257.92 743.68 255.36 734.08 256 L 576 256 c 0 -70.4 -57.6 -128 -128 -128 L 128 128 C 57.6 128 0 185.6 0 256 l 0 480 C 0 753.92 14.08 768 32 768 L 64 768 c 0 70.4 57.6 128 128 128 c 70.4 0 128 -57.6 128 -128 l 320 0 c 0 70.4 57.6 128 128 128 c 70.4 0 128 -57.6 128 -128 l 32 0 c 17.92 0 32 -14.08 32 -32 l 0 -256 C 960 471.04 956.16 462.72 950.4 456.96 Z M 192 832 c -35.2 0 -64 -28.8 -64 -64 c 0 -35.2 28.8 -64 64 -64 s 64 28.8 64 64 C 256 803.2 227.2 832 192 832 Z M 768 832 c -35.2 0 -64 -28.8 -64 -64 c 0 -35.2 28.8 -64 64 -64 c 35.2 0 64 28.8 64 64 C 832 803.2 803.2 832 768 832 Z M 576 512 L 576 320 l 128 0 l 192 192 L 576 512 Z" p-id="2256" /></svg>