<svg width="140" height="140" xmlns="http://www.w3.org/2000/svg" class="icon" viewBox="0 0 1024 1024" width="200" height="200" t="1577060343799" p-id="947" version="1.1"><path fill="#a1a0a5" d="M 492 451.6 c -8.4 11.1 -20.4 19.5 -34.8 23.3 c -75 19.8 -211.1 45.3 -279.3 -6.1 C 88.6 401.4 70.8 274 138.2 184.7 S 333 77.6 422.3 145 c 68.2 51.5 80.9 189.3 82.4 266.9 c 0.4 14.7 -4.3 28.5 -12.7 39.7 Z M 192.2 225.3 c -44.9 59.5 -33.1 144.5 26.5 189.4 c 31.4 23.7 116.9 21.9 218.4 -4.5 c -2.4 -104.9 -24.1 -187.6 -55.5 -211.3 c -59.5 -45 -144.4 -33.1 -189.4 26.4 Z M 520.6 411.8 c 1.5 -77.6 14.3 -215.4 82.4 -266.9 c 89.3 -67.4 216.7 -49.6 284.1 39.7 s 49.6 216.7 -39.7 284.1 c -68.2 51.5 -204.2 25.9 -279.3 6.1 c -14.3 -3.8 -26.4 -12.1 -34.8 -23.3 c -8.3 -11.1 -13 -24.9 -12.7 -39.7 Z m 123.1 -213 c -31.4 23.7 -53.1 106.5 -55.5 211.3 c 101.5 26.4 187.1 28.2 218.4 4.5 c 59.5 -44.9 71.4 -129.9 26.5 -189.4 s -129.8 -71.3 -189.4 -26.4 Z M 504.8 614.3 c -1.5 77.6 -14.3 215.4 -82.4 266.9 c -89.3 67.4 -216.7 49.6 -284.1 -39.7 S 88.7 624.8 178 557.4 c 68.2 -51.5 204.2 -25.9 279.3 -6.1 c 14.3 3.8 26.4 12.1 34.8 23.3 c 8.3 11.1 13 24.9 12.7 39.7 Z m -123.1 213 c 31.4 -23.7 53.1 -106.5 55.5 -211.3 c -101.5 -26.4 -187.1 -28.2 -218.4 -4.5 c -59.5 44.9 -71.4 129.9 -26.5 189.4 c 44.9 59.4 129.8 71.3 189.4 26.4 Z M 533.4 574.5 c 8.4 -11.1 20.4 -19.5 34.8 -23.3 c 75 -19.8 211.1 -45.3 279.3 6.1 c 89.3 67.4 107.1 194.8 39.7 284.1 S 692.3 948.6 603 881.2 c -68.2 -51.5 -80.9 -189.3 -82.4 -266.9 c -0.3 -14.8 4.4 -28.6 12.8 -39.8 Z m 299.8 226.3 c 44.9 -59.5 33.1 -144.5 -26.5 -189.4 c -31.4 -23.7 -116.9 -21.9 -218.4 4.5 c 2.4 104.9 24.1 187.6 55.5 211.3 c 59.5 45 144.4 33.1 189.4 -26.4 Z" p-id="948" /></svg>