<?xml version="1.0" standalone="no"?><!DOCTYPE svg PUBLIC "-//W3C//DTD SVG 1.1//EN" "http://www.w3.org/Graphics/SVG/1.1/DTD/svg11.dtd"><svg class="icon" width="200px" height="200.00px" viewBox="0 0 1024 1024" version="1.1" xmlns="http://www.w3.org/2000/svg"><path fill="#333333" d="M170.666667 554.666667h256c25.6 0 42.666667-17.066667 42.666666-42.666667V170.666667c0-21.333333-17.066667-42.666667-42.666666-42.666667H170.666667c-21.333333 0-42.666667 21.333333-42.666667 42.666667v341.333333c0 25.6 21.333333 42.666667 42.666667 42.666667z m0 341.333333h256c25.6 0 42.666667-21.333333 42.666666-42.666667v-170.666666c0-25.6-17.066667-42.666667-42.666666-42.666667H170.666667c-21.333333 0-42.666667 17.066667-42.666667 42.666667v170.666666c0 21.333333 21.333333 42.666667 42.666667 42.666667z m426.666666 0h256c21.333333 0 42.666667-21.333333 42.666667-42.666667v-341.333333c0-25.6-21.333333-42.666667-42.666667-42.666667h-256c-25.6 0-42.666667 17.066667-42.666666 42.666667v341.333333c0 21.333333 17.066667 42.666667 42.666666 42.666667zM554.666667 170.666667v170.666666c0 25.6 17.066667 42.666667 42.666666 42.666667h256c21.333333 0 42.666667-17.066667 42.666667-42.666667V170.666667c0-21.333333-21.333333-42.666667-42.666667-42.666667h-256c-25.6 0-42.666667 21.333333-42.666666 42.666667z" /></svg>