<?xml version="1.0" standalone="no"?><!DOCTYPE svg PUBLIC "-//W3C//DTD SVG 1.1//EN" "http://www.w3.org/Graphics/SVG/1.1/DTD/svg11.dtd"><svg class="icon" width="200px" height="200.00px" viewBox="0 0 1024 1024" version="1.1" xmlns="http://www.w3.org/2000/svg"><path fill="#333333" d="M512 0C229.2 0 0 229.2 0 512s229.2 512 512 512 512-229.2 512-512S794.8 0 512 0z m174.8 800.1H341c-14.8 0-26.8-12-26.8-26.8s12-26.8 26.8-26.8h345.8c14.7 0 26.8 12 26.8 26.8s-12 26.8-26.8 26.8z m130.9-377.5c-4.3 0-8.4-0.9-12.3-2.3L714.8 682c-2.5 7.2-9.3 12-16.9 12H326.2c-7.6 0-14.4-4.8-16.9-12l-90.6-261.7c-3.8 1.4-7.9 2.3-12.3 2.3-19.7 0-35.7-16-35.7-35.7s16-35.7 35.7-35.7c19.7 0 35.7 16 35.7 35.7 0 5.1-1.1 10-3.1 14.4l162.2 83 95.1-192.7c-11.8-5.8-20-17.9-20-31.9 0-19.7 16-35.7 35.7-35.7s35.7 16 35.7 35.7c0 14.1-8.3 26.2-20.2 32l93.8 194 163.8-84.4c-2-4.4-3.2-9.3-3.2-14.5 0-19.7 16-35.7 35.7-35.7 19.8 0 35.7 16 35.8 35.8 0 19.7-16 35.7-35.7 35.7z" /></svg>