<?xml version="1.0" standalone="no"?><!DOCTYPE svg PUBLIC "-//W3C//DTD SVG 1.1//EN" "http://www.w3.org/Graphics/SVG/1.1/DTD/svg11.dtd"><svg t="1577067601348" class="icon" viewBox="0 0 1024 1024" version="1.1" xmlns="http://www.w3.org/2000/svg" p-id="8768" xmlns:xlink="http://www.w3.org/1999/xlink" width="200" height="200"><defs><style type="text/css"></style></defs><path d="M503.7568 325.973333a90.1632 90.1632 0 0 1-86.8352 65.28c-49.800533 0-90.2144-40.0896-90.2144-89.6s40.413867-89.6 90.2144-89.6c46.455467 0 84.753067 34.901333 89.668267 79.786667h18.176c4.898133-40.874667 39.901867-72.533333 82.312533-72.533333 45.755733 0 82.909867 36.829867 82.909867 82.346666 0 45.5168-37.154133 82.346667-82.909867 82.346667a82.875733 82.875733 0 0 1-79.2064-58.026667h-24.1152z m-31.6416-34.133333a55.927467 55.927467 0 0 0-55.1936-45.653333c-31.010133 0-56.081067 24.866133-56.081067 55.466666s25.088 55.466667 56.081067 55.466667c22.152533 0 41.301333-12.714667 50.397867-31.146667h-1.6384v-34.133333h6.434133zM392.533333 543.8464c-60.757333-46.813867-102.4-125.576533-102.4-205.9264v-58.026667c0-121.617067 99.362133-220.16 221.866667-220.16s221.866667 98.542933 221.866667 220.16v58.026667c0 80.349867-41.642667 159.112533-102.4 205.9264v85.8112l209.92 59.477333c57.5488 16.298667 97.28 68.522667 97.28 128V964.266667H85.333333v-147.131734c0-59.460267 39.7312-111.701333 97.28-128L392.533333 629.6576v-85.8112z m34.133334 21.777067v89.838933l-234.734934 66.5088C149.026133 734.122667 119.466667 772.983467 119.466667 817.134933V930.133333h785.066666v-112.9984c0-44.168533-29.5424-83.012267-72.465066-95.163733L597.333333 655.4624v-89.838933c-26.538667 13.687467-55.4496 21.469867-85.333333 21.469866s-58.794667-7.7824-85.333333-21.469866z m85.333333-12.663467c98.304 0 187.733333-106.171733 187.733333-215.04v-58.026667c0-102.7072-84.0192-186.026667-187.733333-186.026666s-187.733333 83.319467-187.733333 186.026666v58.026667c0 108.868267 89.429333 215.04 187.733333 215.04z m95.0784-203.093333c26.965333 0 48.776533-21.623467 48.776533-48.213334 0-26.589867-21.8112-48.213333-48.776533-48.213333s-48.759467 21.623467-48.759467 48.213333c0 26.589867 21.8112 48.213333 48.759467 48.213334z" p-id="8769"></path></svg>