<?xml version="1.0" standalone="no"?><!DOCTYPE svg PUBLIC "-//W3C//DTD SVG 1.1//EN" "http://www.w3.org/Graphics/SVG/1.1/DTD/svg11.dtd"><svg class="icon" width="200px" height="200.00px" viewBox="0 0 1024 1024" version="1.1" xmlns="http://www.w3.org/2000/svg"><path d="M213.333333 85.333333c0-21.333333-17.066667-42.666667-42.666666-42.666666s-42.666667 21.333333-42.666667 42.666666v170.666667H85.333333c-21.333333 0-42.666667 17.066667-42.666666 42.666667v213.333333h256V298.666667c0-25.6-17.066667-42.666667-42.666667-42.666667H213.333333V85.333333z m170.666667 597.333334c0 55.466667 34.133333 102.4 85.333333 119.466666V938.666667c0 21.333333 17.066667 42.666667 42.666667 42.666666s42.666667-21.333333 42.666667-42.666666v-136.533334c51.2-17.066667 85.333333-64 85.333333-119.466666v-85.333334H384v85.333334z m-341.333333 0c0 55.466667 34.133333 102.4 85.333333 119.466666V938.666667c0 21.333333 21.333333 42.666667 42.666667 42.666666s42.666667-21.333333 42.666666-42.666666v-136.533334c51.2-17.066667 85.333333-64 85.333334-119.466666v-85.333334H42.666667v85.333334zM896 256V85.333333c0-21.333333-21.333333-42.666667-42.666667-42.666666s-42.666667 21.333333-42.666666 42.666666v170.666667h-42.666667c-21.333333 0-42.666667 17.066667-42.666667 42.666667v213.333333h256V298.666667c0-25.6-21.333333-42.666667-42.666666-42.666667h-42.666667z m-341.333333-170.666667c0-21.333333-17.066667-42.666667-42.666667-42.666666s-42.666667 21.333333-42.666667 42.666666v170.666667h-42.666666c-25.6 0-42.666667 17.066667-42.666667 42.666667v213.333333h256V298.666667c0-25.6-17.066667-42.666667-42.666667-42.666667h-42.666666V85.333333z m170.666666 597.333334c0 55.466667 34.133333 102.4 85.333334 119.466666V938.666667c0 21.333333 21.333333 42.666667 42.666666 42.666666s42.666667-21.333333 42.666667-42.666666v-136.533334c51.2-17.066667 85.333333-64 85.333333-119.466666v-85.333334h-256v85.333334z" /></svg>