<svg xmlns="http://www.w3.org/2000/svg" class="icon" viewBox="0 0 1024 1024" width="200" height="200" t="1577075639163" p-id="6695" version="1.1"><path d="M 992.8 410.4 H 31.2 c -7.2 0 -12.8 -4 -15.2 -11.2 s 0 -13.6 5.6 -17.6 L 502.4 7.2 c 5.6 -4.8 13.6 -4.8 20 0 l 480.8 374.4 c 5.6 4 7.2 11.2 5.6 17.6 s -8.8 11.2 -16 11.2 Z m -915.2 -32 h 868.8 L 512 40 L 77.6 378.4 Z" p-id="6696" /><path d="M 679.2 299.2 H 344.8 c -3.2 0 -6.4 -2.4 -7.2 -5.6 c -0.8 -3.2 0 -7.2 2.4 -8.8 l 167.2 -130.4 c 3.2 -2.4 7.2 -2.4 9.6 0 l 167.2 130.4 c 2.4 2.4 4 5.6 2.4 8.8 c -0.8 3.2 -3.2 5.6 -7.2 5.6 Z m -311.2 -16 h 288 l -144 -112 l -144 112 Z M 916 1020 h -808 c -8.8 0 -16 -7.2 -16 -16 V 394.4 c 0 -8.8 7.2 -16 16 -16 h 807.2 c 8.8 0 16 7.2 16 16 v 609.6 c 0.8 8.8 -6.4 16 -15.2 16 Z m -792 -32 h 775.2 V 410.4 H 124 v 577.6 Z" p-id="6697" /><path d="M 420.8 1012 H 238.4 c -4.8 0 -8 -3.2 -8 -8 v -175.2 c 0 -4.8 3.2 -8 8 -8 h 182.4 c 4.8 0 8 3.2 8 8 v 175.2 c 0 4.8 -4 8 -8 8 Z m -174.4 -16 h 166.4 v -159.2 H 246.4 v 159.2 Z" p-id="6698" /><path d="M 603.2 1012 H 420.8 c -4.8 0 -8 -3.2 -8 -8 v -175.2 c 0 -4.8 3.2 -8 8 -8 h 182.4 c 4.8 0 8 3.2 8 8 v 175.2 c 0 4.8 -3.2 8 -8 8 Z m -174.4 -16 h 166.4 v -159.2 H 428.8 v 159.2 Z" p-id="6699" /><path d="M 785.6 1012 H 603.2 c -4.8 0 -8 -3.2 -8 -8 v -175.2 c 0 -4.8 3.2 -8 8 -8 h 182.4 c 4.8 0 8 3.2 8 8 v 175.2 c 0 4.8 -3.2 8 -8 8 Z m -174.4 -16 h 166.4 v -159.2 H 611.2 v 159.2 Z M 512 836.8 H 329.6 c -4.8 0 -8 -3.2 -8 -8 V 654.4 c 0 -4.8 3.2 -8 8 -8 H 512 c 4.8 0 8 3.2 8 8 v 175.2 c 0 4 -3.2 7.2 -8 7.2 Z m -174.4 -16 H 504 V 662.4 H 337.6 v 158.4 Z" p-id="6700" /><path d="M 694.4 836.8 H 512 c -4.8 0 -8 -3.2 -8 -8 V 654.4 c 0 -4.8 3.2 -8 8 -8 h 182.4 c 4.8 0 8 3.2 8 8 v 175.2 c 0 4 -3.2 7.2 -8 7.2 Z m -174.4 -16 h 166.4 V 662.4 H 520 v 158.4 Z" p-id="6701" /><path d="M 603.2 662.4 H 420.8 c -4.8 0 -8 -3.2 -8 -8 V 479.2 c 0 -4.8 3.2 -8 8 -8 h 182.4 c 4.8 0 8 3.2 8 8 v 175.2 c 0 4 -3.2 8 -8 8 Z m -174.4 -16 h 166.4 V 487.2 H 428.8 v 159.2 Z" p-id="6702" /></svg>