<?xml version="1.0" standalone="no"?><!DOCTYPE svg PUBLIC "-//W3C//DTD SVG 1.1//EN" "http://www.w3.org/Graphics/SVG/1.1/DTD/svg11.dtd"><svg t="1577067274592" class="icon" viewBox="0 0 1024 1024" version="1.1" xmlns="http://www.w3.org/2000/svg" p-id="2938" xmlns:xlink="http://www.w3.org/1999/xlink" width="200" height="200"><defs><style type="text/css"></style></defs><path d="M386.50552 348.5c21 0 38.1 17.1 38.1 38.1s-17 38.1-38.1 38.1h-27.8c-21 0-38.1-17.1-38.1-38.1s17-38.1 38.1-38.1h27.8z m278.5 0c21 0 38.1 17.1 38.1 38.1s-17 38.1-38.1 38.1H498.00552c-21 0-38.1-17.1-38.1-38.1s17.1-38.1 38.1-38.1h167z m0 139.3c21 0 38.1 17.1 38.1 38.1S686.00552 564 665.00552 564H358.70552c-21 0-38.1-17.1-38.1-38.1s17.1-38.1 38.1-38.1H665.00552z m0 111.4c21 0 38.1 17.1 38.1 38.1S686.00552 675.4 665.00552 675.4H358.70552c-21 0-38.1-17.1-38.1-38.1s17.1-38.1 38.1-38.1H665.00552zM454.50552 79.1C257.80552 104.2 99.10552 266.4 78.00552 464c-9.7 90.3 8 179.3 51 257.7 22.2 40.3 30.8 86.8 24.1 131.4-2.2 14.9-5.3 29.5-9.3 43.4l-4.2 13.6L156.00552 908c16.2-2.4 31.6-5.5 46.5-9.4 39.2-10.3 80-8.1 118.2 6.3l31.5 13.2c50.8 20.2 105.2 30.6 160.3 30.5 19.6 0 39.3-1.3 58.7-3.9C764.40552 918.8 922.30552 759 945.30552 565.9c16.2-135.9-29.7-268.2-125.9-363.7-96.1-95.5-228.9-140.3-364.9-123.1z m418.1 69.4c112.8 111.9 166.6 267.3 147.7 426.2-27.1 227.3-211.6 414.2-439 444.6-22.8 3.1-45.8 4.6-68.7 4.6-72.8 0-144.4-15.4-210.4-45.3-26-11.8-53.7-14.3-80.4-7.2-44 11.6-91.3 17.3-144.3 17.3-15.8 0.2-30.6-9-36.7-23.6-5.1-12.5-3.3-26.6 4.6-37.2l6.7-7.8c10.2-13.3 21-43 26.3-78.3 4.2-28-1.3-57.8-15.6-83.8C12.40552 666-8.29448 561.6 3.00552 455.9 27.80552 223.6 213.60552 33.7 445.00552 4.3c158.9-20.2 314.9 32.4 427.6 144.2z" p-id="2939"></path></svg>