<?xml version="1.0" standalone="no"?><!DOCTYPE svg PUBLIC "-//W3C//DTD SVG 1.1//EN" "http://www.w3.org/Graphics/SVG/1.1/DTD/svg11.dtd"><svg t="1577067706854" class="icon" viewBox="0 0 1024 1024" version="1.1" xmlns="http://www.w3.org/2000/svg" p-id="14233" xmlns:xlink="http://www.w3.org/1999/xlink" width="200" height="200"><defs><style type="text/css"></style></defs><path d="M512 972.8c-7.68 0-12.8-5.12-12.8-12.8L499.2 601.6c0-7.68 5.12-12.8 12.8-12.8s12.8 5.12 12.8 12.8l0 358.4C524.8 967.68 519.68 972.8 512 972.8z" p-id="14234"></path><path d="M512 409.6c-7.68 0-12.8-5.12-12.8-12.8L499.2 64c0-7.68 5.12-12.8 12.8-12.8s12.8 5.12 12.8 12.8l0 332.8C524.8 404.48 519.68 409.6 512 409.6z" p-id="14235"></path><path d="M832 972.8c-7.68 0-12.8-5.12-12.8-12.8L819.2 473.6c0-7.68 5.12-12.8 12.8-12.8s12.8 5.12 12.8 12.8l0 486.4C844.8 967.68 839.68 972.8 832 972.8z" p-id="14236"></path><path d="M832 281.6c-7.68 0-12.8-5.12-12.8-12.8L819.2 64c0-7.68 5.12-12.8 12.8-12.8s12.8 5.12 12.8 12.8l0 204.8C844.8 276.48 839.68 281.6 832 281.6z" p-id="14237"></path><path d="M192 972.8c-7.68 0-12.8-5.12-12.8-12.8L179.2 755.2c0-7.68 5.12-12.8 12.8-12.8s12.8 5.12 12.8 12.8l0 204.8C204.8 967.68 199.68 972.8 192 972.8z" p-id="14238"></path><path d="M192 563.2c-7.68 0-12.8-5.12-12.8-12.8L179.2 64c0-7.68 5.12-12.8 12.8-12.8s12.8 5.12 12.8 12.8l0 486.4C204.8 558.08 199.68 563.2 192 563.2z" p-id="14239"></path><path d="M192 768c-64 0-115.2-52.48-115.2-115.2s52.48-115.2 115.2-115.2 115.2 52.48 115.2 115.2S256 768 192 768zM192 563.2c-49.92 0-89.6 40.96-89.6 89.6s40.96 89.6 89.6 89.6 89.6-40.96 89.6-89.6S241.92 563.2 192 563.2z" p-id="14240"></path><path d="M832 486.4c-64 0-115.2-52.48-115.2-115.2s52.48-115.2 115.2-115.2 115.2 52.48 115.2 115.2S896 486.4 832 486.4zM832 281.6c-49.92 0-89.6 40.96-89.6 89.6s40.96 89.6 89.6 89.6 89.6-40.96 89.6-89.6S881.92 281.6 832 281.6z" p-id="14241"></path><path d="M512 614.4c-64 0-115.2-52.48-115.2-115.2s52.48-115.2 115.2-115.2 115.2 52.48 115.2 115.2S576 614.4 512 614.4zM512 409.6c-49.92 0-89.6 40.96-89.6 89.6s40.96 89.6 89.6 89.6 89.6-40.96 89.6-89.6S561.92 409.6 512 409.6z" p-id="14242"></path></svg>