<?xml version="1.0" standalone="no"?><!DOCTYPE svg PUBLIC "-//W3C//DTD SVG 1.1//EN" "http://www.w3.org/Graphics/SVG/1.1/DTD/svg11.dtd"><svg t="1577067637742" class="icon" viewBox="0 0 1024 1024" version="1.1" xmlns="http://www.w3.org/2000/svg" p-id="10857" xmlns:xlink="http://www.w3.org/1999/xlink" width="200" height="200"><defs><style type="text/css"></style></defs><path d="M736 896h64a64 64 0 0 0 64-64v-64a64 64 0 0 0-64-64h-64a64 64 0 0 0-64 64v64a64 64 0 0 0 64 64z m0-128h64v64h-64z m0-128h64a64 64 0 0 0 64-64v-64a64 64 0 0 0-64-64h-64a64 64 0 0 0-64 64v64a64 64 0 0 0 64 64z m0-128h64v64h-64z m-256 384h64a64 64 0 0 0 64-64v-64a64 64 0 0 0-64-64h-64a64 64 0 0 0-64 64v64a64 64 0 0 0 64 64z m0-128h64v64h-64z m0-128h64a64 64 0 0 0 64-64v-64a64 64 0 0 0-64-64h-64a64 64 0 0 0-64 64v64a64 64 0 0 0 64 64z m0-128h64v64h-64zM224 896h64a64 64 0 0 0 64-64v-64a64 64 0 0 0-64-64H224a64 64 0 0 0-64 64v64a64 64 0 0 0 64 64z m0-128h64v64H224zM864 64h-128V32a32 32 0 1 0-64 0v32H352V32a32 32 0 1 0-64 0v32H160a128 128 0 0 0-128 128v704a128 128 0 0 0 128 128h704a128 128 0 0 0 128-128V192a128 128 0 0 0-128-128z m64 832a64 64 0 0 1-64 64H160a64 64 0 0 1-64-64V320h832z m0-640H96V192a64 64 0 0 1 64-64h128v32a32 32 0 0 0 64 0V128h320v32a32 32 0 0 0 64 0V128h128a64 64 0 0 1 64 64zM224 640h64a64 64 0 0 0 64-64v-64a64 64 0 0 0-64-64H224a64 64 0 0 0-64 64v64a64 64 0 0 0 64 64z m0-128h64v64H224z" p-id="10858"></path></svg>