<?xml version="1.0" standalone="no"?><!DOCTYPE svg PUBLIC "-//W3C//DTD SVG 1.1//EN" "http://www.w3.org/Graphics/SVG/1.1/DTD/svg11.dtd"><svg t="1577067667338" class="icon" viewBox="0 0 1024 1024" version="1.1" xmlns="http://www.w3.org/2000/svg" p-id="11913" xmlns:xlink="http://www.w3.org/1999/xlink" width="200" height="200"><defs><style type="text/css"></style></defs><path d="M896 96c0-17.92-14.08-32-32-32h-704c-17.92 0-32 14.08-32 32v832c0 17.92 14.08 32 32 32h512c4.48 0 8.32-0.64 12.16-2.56s7.68-3.84 10.24-7.04l192-192c3.2-3.2 5.12-6.4 7.04-10.24s2.56-7.68 2.56-12.16v-640zM192 128h640v576h-160c-17.92 0-32 14.08-32 32V896H192V128z m594.56 640L704 850.56V768h82.56z" p-id="11914"></path><path d="M320 448h384v64H320zM320 256h192v64H320z" p-id="11915"></path></svg>