<?xml version="1.0" standalone="no"?><!DOCTYPE svg PUBLIC "-//W3C//DTD SVG 1.1//EN" "http://www.w3.org/Graphics/SVG/1.1/DTD/svg11.dtd"><svg t="1577067261877" class="icon" viewBox="0 0 1024 1024" version="1.1" xmlns="http://www.w3.org/2000/svg" p-id="2706" xmlns:xlink="http://www.w3.org/1999/xlink" width="200" height="200"><defs><style type="text/css"></style></defs><path d="M116.363636 162.909091a23.272727 23.272727 0 0 0-23.272727 23.272727v139.636364a23.272727 23.272727 0 0 0 23.272727 23.272727h791.272728a23.272727 23.272727 0 0 0 23.272727-23.272727V186.181818a23.272727 23.272727 0 0 0-23.272727-23.272727H116.363636z m0-46.545455h791.272728a69.818182 69.818182 0 0 1 69.818181 69.818182v139.636364a69.818182 69.818182 0 0 1-69.818181 69.818182H116.363636a69.818182 69.818182 0 0 1-69.818181-69.818182V186.181818a69.818182 69.818182 0 0 1 69.818181-69.818182z m46.545455 279.272728v442.181818a23.272727 23.272727 0 0 0 23.272727 23.272727h651.636364a23.272727 23.272727 0 0 0 23.272727-23.272727V395.636364H162.909091z m744.727273-46.545455v488.727273a69.818182 69.818182 0 0 1-69.818182 69.818182H186.181818a69.818182 69.818182 0 0 1-69.818182-69.818182V349.090909h791.272728zM349.090909 605.090909h325.818182a23.272727 23.272727 0 0 1 0 46.545455H349.090909a23.272727 23.272727 0 0 1 0-46.545455z" p-id="2707"></path></svg>