<?xml version="1.0" standalone="no"?><!DOCTYPE svg PUBLIC "-//W3C//DTD SVG 1.1//EN" "http://www.w3.org/Graphics/SVG/1.1/DTD/svg11.dtd"><svg t="1577067701372" class="icon" viewBox="0 0 1024 1024" version="1.1" xmlns="http://www.w3.org/2000/svg" p-id="14121" xmlns:xlink="http://www.w3.org/1999/xlink" width="200" height="200"><defs><style type="text/css"></style></defs><path d="M73.3184 767.05792l429.056 213.72928a21.7088 21.7088 0 0 0 19.2512 0l429.09696-213.72928a21.38112 21.38112 0 0 0 11.83744-19.08736V235.06944a20.60288 20.60288 0 0 0-3.39968-10.97728c-0.6144-1.06496-1.59744-1.76128-2.4576-2.70336-1.18784-1.35168-2.048-2.99008-3.56352-4.01408-0.8192-0.49152-1.72032-0.49152-2.53952-0.94208-0.6144-0.28672-0.90112-0.98304-1.55648-1.2288L519.94624 44.2368a21.34016 21.34016 0 0 0-15.93344 0L74.9568 215.20384c-0.6144 0.28672-0.90112 0.94208-1.51552 1.26976-0.8192 0.4096-1.76128 0.4096-2.53952 0.90112-1.51552 1.024-2.4576 2.6624-3.64544 4.01408-0.8192 0.94208-1.76128 1.6384-2.37568 2.70336A20.60288 20.60288 0 0 0 61.44 235.06944v512.90112c0 8.06912 4.58752 15.48288 11.8784 19.08736zM104.32512 266.6496l386.17088 153.88672v506.55232l-386.17088-192.34816V266.6496z m429.09696 660.43904V420.53632l386.17088-153.88672v468.09088l-386.17088 192.34816zM512 87.16288l371.34336 147.90656L512 383.01696 140.65664 235.06944 512 87.16288z" p-id="14122"></path></svg>