<?xml version="1.0" standalone="no"?><!DOCTYPE svg PUBLIC "-//W3C//DTD SVG 1.1//EN" "http://www.w3.org/Graphics/SVG/1.1/DTD/svg11.dtd"><svg t="1577067255059" class="icon" viewBox="0 0 1024 1024" version="1.1" xmlns="http://www.w3.org/2000/svg" p-id="2593" xmlns:xlink="http://www.w3.org/1999/xlink" width="200" height="200"><defs><style type="text/css"></style></defs><path d="M512 63.4624c247.33184 0 448.55808 201.23136 448.55808 448.55808s-201.22624 448.5632-448.55808 448.5632c-105.86112 0-208.5888-37.5552-289.28512-105.73312-14.88896-12.60544-34.21696-18.99008-57.39008-18.99008-15.4368 0-32.05632 2.6624-49.52576 6.21568 15.47776-36.41344 26.17856-73.2928 6.30272-108.14464-38.35904-67.24608-58.65984-143.96416-58.65984-221.91104 0-247.32672 201.22624-448.55808 448.55808-448.55808z m0-63.44192c-282.77248 0-512 229.22752-512 512 0 92.15488 24.36096 178.64704 66.94912 253.3376 16.24064 28.46208-57.39008 122.85952-36.16256 147.5584 3.29728 3.85024 9.76896 5.32992 18.31424 5.32992 30.32576 0 86.40512-18.99008 116.21888-18.99008 7.31648 0 13.06624 1.14176 16.45056 4.0192 89.15456 75.32544 204.40064 120.704 330.22464 120.704 282.77248 0 512-229.22752 512-512S794.77248 0.02048 512 0.02048z" p-id="2594"></path><path d="M511.872 809.088c-169.00096 0-306.49856-138.46528-306.49856-308.74112a31.72864 31.72864 0 0 1 31.7184-31.7184 31.72864 31.72864 0 0 1 31.7184 31.7184c0 135.296 109.0304 245.2992 243.05664 245.2992s243.05664-110.04416 243.05664-245.2992c0-17.5104 14.208-31.7184 31.7184-31.7184s31.7184 14.208 31.7184 31.7184c0.01024 170.27072-137.48224 308.74112-306.48832 308.74112z" p-id="2595"></path></svg>