<?xml version="1.0" standalone="no"?><!DOCTYPE svg PUBLIC "-//W3C//DTD SVG 1.1//EN" "http://www.w3.org/Graphics/SVG/1.1/DTD/svg11.dtd"><svg t="1577067692201" class="icon" viewBox="0 0 1024 1024" version="1.1" xmlns="http://www.w3.org/2000/svg" p-id="13389" xmlns:xlink="http://www.w3.org/1999/xlink" width="200" height="200"><defs><style type="text/css"></style></defs><path d="M784.64 611.84H755.2v-76.8c0-38.4-32-70.4-70.4-70.4h-153.6v-53.76h29.44c38.4 0 70.4-32 70.4-70.4V243.2c0-38.4-32-70.4-70.4-70.4h-97.28c-38.4 0-70.4 32-70.4 70.4v97.28c0 38.4 32 70.4 70.4 70.4h29.44v53.76h-153.6c-38.4 0-70.4 32-70.4 70.4v76.8h-29.44c-38.4 0-70.4 32-70.4 70.4v97.28c0 38.4 32 70.4 70.4 70.4h97.28c38.4 0 70.4-32 70.4-70.4v-97.28c0-38.4-32-70.4-70.4-70.4H307.2v-76.8c0-17.92 14.08-32 32-32h344.32c17.92 0 32 14.08 32 32v76.8h-29.44c-38.4 0-70.4 32-70.4 70.4v97.28c0 38.4 32 70.4 70.4 70.4h97.28c38.4 0 70.4-32 70.4-70.4v-97.28c1.28-38.4-30.72-70.4-69.12-70.4z m-448 38.4c17.92 0 32 14.08 32 32v97.28c0 17.92-14.08 32-32 32h-97.28c-17.92 0-32-14.08-32-32v-97.28c0-17.92 14.08-32 32-32h97.28z m126.72-276.48c-17.92 0-32-14.08-32-32v-97.28c0-17.92 14.08-32 32-32h97.28c17.92 0 32 14.08 32 32v97.28c0 17.92-14.08 32-32 32h-97.28z m353.28 405.76c0 17.92-14.08 32-32 32h-97.28c-17.92 0-32-14.08-32-32v-97.28c0-17.92 14.08-32 32-32h97.28c17.92 0 32 14.08 32 32v97.28z" fill="#333333" p-id="13390"></path></svg>