<?xml version="1.0" standalone="no"?><!DOCTYPE svg PUBLIC "-//W3C//DTD SVG 1.1//EN" "http://www.w3.org/Graphics/SVG/1.1/DTD/svg11.dtd"><svg t="1577067646655" class="icon" viewBox="0 0 1361 1024" version="1.1" xmlns="http://www.w3.org/2000/svg" p-id="10969" xmlns:xlink="http://www.w3.org/1999/xlink" width="265.8203125" height="200"><defs><style type="text/css"></style></defs><path d="M343.557833 1004.556962l-19.443038-19.443038c-213.873418-181.468354-324.050633-349.974684-324.050633-505.518987a356.455696 356.455696 0 0 1 343.493671-362.936709 356.455696 356.455696 0 0 1 343.493671 362.936709c0 155.544304-110.177215 324.050633-324.050633 505.518987z m0-823.088608A291.64557 291.64557 0 0 0 64.874289 479.594937c0 129.620253 90.734177 278.683544 278.683544 440.70886 181.468354-162.025316 278.683544-311.088608 278.683544-440.70886a291.64557 291.64557 0 0 0-278.683544-298.126583z m0 505.518988a200.911392 200.911392 0 0 1-200.911392-207.392405 207.392405 207.392405 0 0 1 200.911392-213.873418 207.392405 207.392405 0 0 1 200.911392 213.873418 200.911392 200.911392 0 0 1-200.911392 207.392405z m0-356.455696a142.582278 142.582278 0 0 0-136.101266 149.063291 136.101266 136.101266 0 0 0 136.101266 142.582278 142.582278 142.582278 0 0 0 136.101266-142.582278 142.582278 142.582278 0 0 0-136.101266-149.063291zM1101.836314 654.582278l-19.443038-19.443037C920.367959 505.518987 842.595808 388.860759 842.595808 272.202532A265.721519 265.721519 0 0 1 1101.836314 0a265.721519 265.721519 0 0 1 259.240506 272.202532c0 116.658228-77.772152 233.316456-239.797468 362.936709zM1101.836314 64.810127a200.911392 200.911392 0 0 0-194.43038 207.392405c0 84.253165 64.810127 187.949367 194.43038 298.126582 129.620253-110.177215 194.43038-213.873418 194.43038-298.126582A200.911392 200.911392 0 0 0 1101.836314 64.810127z m0 349.974683a149.063291 149.063291 0 0 1-142.582279-149.063291 149.063291 149.063291 0 1 1 291.64557 0A149.063291 149.063291 0 0 1 1101.836314 414.78481z m0-233.316456a77.772152 77.772152 0 0 0-77.772152 84.253165A77.772152 77.772152 0 0 0 1101.836314 349.974684a84.253165 84.253165 0 0 0 84.253164-84.253165A84.253165 84.253165 0 0 0 1101.836314 181.468354zM868.519858 1024a2093.367089 2093.367089 0 0 1-337.012658-58.329114l12.962025-64.810127a1406.379747 1406.379747 0 0 0 343.493671 58.329114 71.291139 71.291139 0 0 0 71.291139-45.367088 51.848101 51.848101 0 0 0-32.405063-58.329114 187.949367 187.949367 0 0 1-149.063291-136.101266 110.177215 110.177215 0 0 1 32.405063-116.658228 136.101266 136.101266 0 0 1 142.582279-19.443038l-25.924051 58.329114a71.291139 71.291139 0 0 0-71.291139 6.481013 64.810127 64.810127 0 0 0-12.962025 58.329114c6.481013 38.886076 45.367089 71.291139 103.696202 90.734177h6.481013a123.139241 123.139241 0 0 1 71.291139 129.620253 142.582278 142.582278 0 0 1-129.620253 97.21519z" p-id="10970"></path></svg>