<?xml version="1.0" standalone="no"?><!DOCTYPE svg PUBLIC "-//W3C//DTD SVG 1.1//EN" "http://www.w3.org/Graphics/SVG/1.1/DTD/svg11.dtd"><svg t="1577067655951" class="icon" viewBox="0 0 1024 1024" version="1.1" xmlns="http://www.w3.org/2000/svg" p-id="11193" xmlns:xlink="http://www.w3.org/1999/xlink" width="200" height="200"><defs><style type="text/css"></style></defs><path d="M815.786667 229.973333h-100.693334V202.88a57.6 57.6 0 0 0-57.6-57.6h-28.373333a123.093333 123.093333 0 0 0-234.666667 0h-27.946666a57.6 57.6 0 0 0-57.6 57.6v27.093333H208.213333a76.8 76.8 0 0 0-76.8 76.8v580.053334a76.8 76.8 0 0 0 76.8 76.8h607.573334a76.8 76.8 0 0 0 76.8-76.8V306.773333a76.8 76.8 0 0 0-76.8-76.8z m-430.293334-8.106666h80V183.68a46.293333 46.293333 0 1 1 92.8 0v38.4h80v92.8H385.706667z m430.293334 664.96H208.213333V306.773333h100.693334v27.093334a57.6 57.6 0 0 0 57.6 57.6h290.986666a57.6 57.6 0 0 0 57.6-57.6v-27.093334h100.693334z" p-id="11194"></path><path d="M566.613333 586.026667H328.746667a38.4 38.4 0 0 1 0-76.8h237.866666a38.4 38.4 0 0 1 0 76.8zM695.253333 771.626667H328.746667a38.4 38.4 0 0 1 0-76.8h366.506666a38.4 38.4 0 0 1 0 76.8z" p-id="11195"></path></svg>