<?xml version="1.0" standalone="no"?><!DOCTYPE svg PUBLIC "-//W3C//DTD SVG 1.1//EN" "http://www.w3.org/Graphics/SVG/1.1/DTD/svg11.dtd"><svg t="1577067652531" class="icon" viewBox="0 0 1024 1024" version="1.1" xmlns="http://www.w3.org/2000/svg" p-id="11081" xmlns:xlink="http://www.w3.org/1999/xlink" width="200" height="200"><defs><style type="text/css"></style></defs><path d="M789.504 145.408H234.496c-32.256 0-58.368 26.112-58.368 58.368V901.12c0 32.256 26.112 58.368 58.368 58.368h555.008c32.256 0 58.368-26.112 58.368-58.368V203.776c0-31.744-26.624-58.368-58.368-58.368zM14.336 5.632c0.512 0 1.024 0.512 1.024 1.024v7.68c0 0.512-0.512 1.024-1.024 1.024H2.048c-1.024 0-1.024-0.512-1.024-1.024V6.656c0-0.512 0.512-1.024 1.024-1.024h12.288m0-0.512H2.048c-1.024 0-1.536 0.512-1.536 1.536v7.68c0 1.024 0.512 1.536 1.536 1.536h12.288c0.512 0 1.024-1.024 1.024-1.536V6.656c0.512-1.024-0.512-1.536-1.024-1.536zM6.656 10.24h3.072v0.512L6.656 10.24z m1.024-1.536l0.512 3.072h-0.512v-3.072zM9.216 3.072c0.512 0 0.512 0 0 0l0.512 2.048h-3.584V3.584c0-0.512 0-0.512 0.512-0.512h2.56m0-0.512h-2.56c-0.512 0-1.024 0.512-1.024 1.024v2.048H10.24V3.584c0-0.512-0.512-1.024-1.024-1.024z m771.584 184.32c15.36 0 28.16 12.8 28.16 28.16v674.816c0 15.36-12.8 28.16-28.16 28.16h-537.6c-15.36 0-28.16-12.8-28.16-28.16V215.04c0-15.36 12.8-28.16 28.16-28.16h537.6m-210.432-92.672c15.872 0 29.184 14.848 29.184 32.768v14.336c-2.56 0.512-6.656 0.512-13.312 0.512h-148.48c-6.656 0-10.752-0.512-13.312-0.512v-14.336c0-17.92 13.312-32.768 29.184-32.768h116.736m0-23.04H453.632c-32.256 0-58.368 26.112-58.368 58.368v15.872c0 23.552 18.944 26.624 42.496 26.624h148.48c23.552 0 42.496-3.072 42.496-26.624v-15.872c0-32.256-26.112-58.368-58.368-58.368z m-291.84 205.824h467.456v32.768H278.528v-32.768z m0 392.704h467.456v32.768H278.528v-32.768z m0-293.888h467.456v32.768H278.528v-32.768z m0.512 97.28h467.456v32.768H279.04v-32.768z m-0.512 97.28h467.456v32.768H278.528v-32.768z m0 197.632h275.968v32.768H278.528V768z m262.656-632.832H483.84c-7.68 0-14.336-6.144-14.336-14.336 0-7.68 6.144-14.336 14.336-14.336h57.344c7.68 0 14.336 6.144 14.336 14.336 0 7.68-6.144 14.336-14.336 14.336z" p-id="11082"></path></svg>