<?xml version="1.0" standalone="no"?><!DOCTYPE svg PUBLIC "-//W3C//DTD SVG 1.1//EN" "http://www.w3.org/Graphics/SVG/1.1/DTD/svg11.dtd"><svg class="icon" width="200px" height="200.00px" viewBox="0 0 1024 1024" version="1.1" xmlns="http://www.w3.org/2000/svg"><path fill="#333333" d="M853.333333 298.666667H426.666667v213.333333c0 25.6-17.066667 42.666667-42.666667 42.666667s-42.666667-17.066667-42.666667-42.666667V213.333333h213.333334c25.6 0 42.666667-17.066667 42.666666-42.666666V85.333333c0-21.333333-17.066667-42.666667-42.666666-42.666666H298.666667c-25.6 0-42.666667 21.333333-42.666667 42.666666v213.333334H170.666667c-46.933333 0-85.333333 38.4-85.333334 85.333333v512c0 46.933333 38.4 85.333333 85.333334 85.333333h682.666666c46.933333 0 85.333333-38.4 85.333334-85.333333V384c0-46.933333-38.4-85.333333-85.333334-85.333333z" /></svg>