<?xml version="1.0" standalone="no"?><!DOCTYPE svg PUBLIC "-//W3C//DTD SVG 1.1//EN" "http://www.w3.org/Graphics/SVG/1.1/DTD/svg11.dtd"><svg class="icon" width="200px" height="200.00px" viewBox="0 0 1024 1024" version="1.1" xmlns="http://www.w3.org/2000/svg"><path d="M704 512c59.733333 0 106.666667-46.933333 106.666667-106.666667S763.733333 298.666667 704 298.666667 597.333333 345.6 597.333333 405.333333s46.933333 106.666667 106.666667 106.666667zM384 469.333333c72.533333 0 128-55.466667 128-128s-55.466667-128-128-128-128 55.466667-128 128 55.466667 128 128 128z m320 128c-76.8 0-234.666667 38.4-234.666667 119.466667V768c0 21.333333 17.066667 42.666667 42.666667 42.666667h384c21.333333 0 42.666667-21.333333 42.666667-42.666667v-51.2c0-81.066667-157.866667-119.466667-234.666667-119.466667zM384 554.666667c-98.133333 0-298.666667 51.2-298.666667 149.333333V768c0 21.333333 21.333333 42.666667 42.666667 42.666667h256v-93.866667c0-38.4 12.8-98.133333 102.4-149.333333-38.4-8.533333-72.533333-12.8-102.4-12.8z" /></svg>