<?xml version="1.0" standalone="no"?><!DOCTYPE svg PUBLIC "-//W3C//DTD SVG 1.1//EN" "http://www.w3.org/Graphics/SVG/1.1/DTD/svg11.dtd"><svg class="icon" width="200px" height="200.00px" viewBox="0 0 1024 1024" version="1.1" xmlns="http://www.w3.org/2000/svg"><path fill="#333333" d="M912.8 841.9c-49.3-167.1-197.1-286.2-370.9-298.7V362.7h119.5c16.5 0 29.9-13.4 29.9-29.9V213.3c0-16.5-13.4-29.9-29.9-29.9H362.7c-16.5 0-29.9 13.4-29.9 29.9v119.5c0 16.5 13.4 29.9 29.9 29.9h119.5v180.6c-173.8 12.5-321.7 131.5-371 298.7-32.2 7-52.7 38.7-45.8 71 7 32.2 38.7 52.7 71 45.8 27.5-5.9 47.1-30.3 47.1-58.4 0-15.4-6-29.3-15.5-39.8 41.3-142.6 166.2-245 314.2-257.4V849c-17.8 10.3-29.9 29.4-29.9 51.5 0 33 26.7 59.7 59.7 59.7s59.7-26.7 59.7-59.7c0-22-12.1-41.1-29.9-51.5V603c148 12.4 272.9 114.8 314.2 257.4-9.9 10.9-15.5 25.1-15.5 39.8 0 33 26.7 59.7 59.7 59.7s59.7-26.7 59.7-59.7c0.1-28.1-19.6-52.4-47.1-58.3zM302.9 482.1h72.3c16.5 0 29.9-13.4 29.9-29.9s-13.4-29.9-29.9-29.9h-72.3c-16.5 0-29.9-13.4-29.9-29.9V153.6c0-16.5 13.4-29.9 29.9-29.9H721c16.5 0 29.9 13.4 29.9 29.9v238.9c0 16.5-13.4 29.9-29.9 29.9h-84.6c-16.5 0-29.9 13.4-29.9 29.9s13.4 29.9 29.9 29.9H721c49.5 0 89.6-40.1 89.6-89.6v-239c0-49.5-40.1-89.6-89.6-89.6H302.9c-49.5 0-89.6 40.1-89.6 89.6v238.9c0 49.5 40.2 89.6 89.6 89.6z" /></svg>