<?xml version="1.0" standalone="no"?><!DOCTYPE svg PUBLIC "-//W3C//DTD SVG 1.1//EN" "http://www.w3.org/Graphics/SVG/1.1/DTD/svg11.dtd"><svg class="icon" width="200px" height="200.00px" viewBox="0 0 1024 1024" version="1.1" xmlns="http://www.w3.org/2000/svg"><path fill="#333333" d="M900 806.1c0-17.7 12.3-32 30-32s30 14.3 30 32V880c0 26.5-19.5 48-46 48H112c-26.5 0-48-21.5-48-48V144c0-26.5 21.5-48 48-48h800c26.5 0 48 21.5 48 48v166.1H124V868h776v-61.9z m0-556V156H124v94.1h776zM644.2 410c5.5-15.2 22.3-23 37.5-17.5s23 22.3 17.5 37.5l-117 321.7c-5.5 15.2-22.3 23-37.5 17.5s-23-22.3-17.5-37.5l117-321.7z m122.7 58.8c-10.8-12-9.8-30.5 2.2-41.3 12-10.8 30.5-9.8 41.3 2.2L926 558.2c10 11.1 10 28 0 39.1L810.4 725.9c-10.8 12-29.3 13-41.3 2.2-12-10.8-13-29.3-2.2-41.3l98-109-98-109z m-308.9 0c10.8-12 9.8-30.5-2.2-41.3-12-10.8-30.5-9.8-41.3 2.2L298.9 558.2c-10 11.1-10 28 0 39.1l115.6 128.5c10.6 12.2 29.1 13.5 41.3 2.9s13.5-29.1 2.9-41.3c-0.2-0.3-0.5-0.5-0.7-0.8l-98-109 98-108.8z" /></svg>