<?xml version="1.0" standalone="no"?><!DOCTYPE svg PUBLIC "-//W3C//DTD SVG 1.1//EN" "http://www.w3.org/Graphics/SVG/1.1/DTD/svg11.dtd"><svg t="1577067611883" class="icon" viewBox="0 0 1024 1024" version="1.1" xmlns="http://www.w3.org/2000/svg" p-id="8880" xmlns:xlink="http://www.w3.org/1999/xlink" width="200" height="200"><defs><style type="text/css"></style></defs><path d="M883.2 454.4c-51.2 0-96 32-115.2 76.8l-64-19.2v-6.4c0-76.8-38.4-134.4-102.4-166.4l38.4-76.8h19.2c70.4 0 128-57.6 128-121.6 0-70.4-57.6-121.6-121.6-121.6-70.4 0-121.6 57.6-121.6 121.6 0 38.4 19.2 76.8 51.2 96l-38.4 83.2h-38.4c-44.8 0-83.2 12.8-115.2 38.4l-147.2-147.2c12.8-19.2 19.2-38.4 19.2-64 0-70.4-57.6-121.6-121.6-121.6-70.4 0-121.6 57.6-121.6 121.6 0 70.4 57.6 121.6 121.6 121.6 25.6 0 44.8-6.4 64-19.2l147.2 147.2c-25.6 32-38.4 70.4-38.4 115.2 0 38.4 12.8 70.4 25.6 96l-121.6 96c-19.2-19.2-51.2-32-83.2-32-70.4 0-121.6 57.6-121.6 121.6 0 70.4 57.6 121.6 121.6 121.6 70.4 0 121.6-57.6 121.6-121.6 0-19.2 0-32-12.8-44.8l128-102.4c38.4 32 76.8 51.2 128 51.2 19.2 0 38.4 0 57.6-12.8l57.6 96c-25.6 19.2-38.4 57.6-38.4 89.6 0 70.4 57.6 121.6 121.6 121.6 70.4 0 121.6-57.6 121.6-121.6 0-70.4-57.6-121.6-121.6-121.6-12.8 0-25.6 0-38.4 6.4l-57.6-96c32-25.6 57.6-57.6 70.4-96l64 19.2c6.4 64 57.6 115.2 121.6 115.2 70.4 0 121.6-57.6 121.6-121.6 12.8-64-44.8-121.6-108.8-121.6z m-224-377.6c38.4 0 70.4 32 70.4 70.4 0 38.4-32 70.4-70.4 70.4-38.4 0-70.4-32-70.4-70.4 6.4-44.8 32-70.4 70.4-70.4z m128 800c0 38.4-32 70.4-70.4 70.4-38.4 0-70.4-32-70.4-70.4 0-38.4 32-70.4 70.4-70.4 38.4 6.4 70.4 38.4 70.4 70.4z m-646.4-665.6c-38.4 0-70.4-32-70.4-70.4 0-38.4 32-70.4 70.4-70.4 38.4 0 70.4 32 70.4 70.4 0 38.4-32 70.4-70.4 70.4z m0 652.8c-38.4 0-70.4-32-70.4-70.4 0-38.4 32-70.4 70.4-70.4 38.4 0 70.4 32 70.4 70.4 0 44.8-32 70.4-70.4 70.4z m371.2-217.6c-76.8 0-134.4-57.6-134.4-134.4 0-76.8 57.6-134.4 134.4-134.4s134.4 57.6 134.4 134.4c0 76.8-57.6 134.4-134.4 134.4z m371.2 0c-38.4 0-70.4-32-70.4-70.4s32-70.4 70.4-70.4c38.4 0 70.4 32 70.4 70.4s-32 70.4-70.4 70.4z" fill="#333333" p-id="8881"></path></svg>