<?xml version="1.0" standalone="no"?><!DOCTYPE svg PUBLIC "-//W3C//DTD SVG 1.1//EN" "http://www.w3.org/Graphics/SVG/1.1/DTD/svg11.dtd"><svg t="1577067277975" class="icon" viewBox="0 0 1024 1024" version="1.1" xmlns="http://www.w3.org/2000/svg" p-id="3050" xmlns:xlink="http://www.w3.org/1999/xlink" width="200" height="200"><defs><style type="text/css"></style></defs><path d="M833.877333 884.736c55.978667 0 48.128 69.290667 0 69.290667H189.781333c-52.565333 0-50.517333-69.290667 0-69.290667h644.096z m0-187.733333c55.978667 0 48.128 69.290667 0 69.290666H189.781333c-52.565333 0-50.517333-69.290667 0-69.290666h644.096z m0-187.392c55.978667 0 48.128 69.290667 0 69.290666H189.781333c-52.565333 0-50.517333-69.290667 0-69.290666h644.096z m-225.621333-233.472c67.584 0 58.368 69.290667 0 69.290666H419.84c-63.488 0-61.098667-69.290667 0-69.290666h188.416z" p-id="3051"></path><path d="M6.826667 984.064V318.805333C6.826667 307.2 12.970667 295.936 22.869333 290.133333l471.04-278.869333c9.898667-5.802667 22.186667-5.802667 31.744 0L1000.789333 290.133333c10.24 6.144 16.384 17.066667 16.384 29.013334V983.04c-0.341333 17.749333-14.677333 31.744-32.085333 32.085333-17.749333-0.341333-31.744-14.677333-32.085333-32.085333V338.261333L510.293333 78.506667 71.338667 338.261333v645.802667c0 18.432-14.336 33.109333-32.085334 33.109333-18.432-0.341333-32.768-15.36-32.426666-33.109333z" p-id="3052"></path></svg>