<?xml version="1.0" standalone="no"?><!DOCTYPE svg PUBLIC "-//W3C//DTD SVG 1.1//EN" "http://www.w3.org/Graphics/SVG/1.1/DTD/svg11.dtd"><svg class="icon" width="200px" height="200.00px" viewBox="0 0 1024 1024" version="1.1" xmlns="http://www.w3.org/2000/svg"><path fill="#333333" d="M247.4 183.3c-1.8-1.8-4.3-3.6-7-4.9-5.3-2.2-11.4-2.2-16.7 0-2.5 1.3-5.2 2.7-7 4.9-2.2 2.1-3.5 4.3-4.9 7-0.9 2.6-1.8 5.7-1.8 8.3 0 6.2 2.7 11.4 6.6 15.9 1.8 1.8 4.3 3.6 7 4.9 2.7 0.9 5.8 1.3 8.4 1.3 5.7 0 11.4-2.2 15.3-6.2 4.4-4 6.6-9.7 6.6-15.9 0-2.6-0.4-5.7-1.8-8.3-0.8-2.6-2.5-4.8-4.7-7zM320.4 183.4c-8-8.1-22.4-8.1-30.7 0-2.2 2.1-4 4.4-4.9 7.1-1.3 2.6-1.8 5.8-1.8 8.5 0 6.3 2.2 11.6 6.6 16.1 4 3.9 9.6 6.2 15.4 6.2 5.6 0 11.4-2.3 15.4-6.2 4.4-4.5 6.6-9.8 6.6-16.1 0-2.6-0.4-5.8-1.8-8.5-0.9-2.6-2.6-4.9-4.8-7.1zM393.5 183.3c-6.1-6.2-15.7-8-23.7-4.9-2.5 1.3-5.2 2.7-7.4 4.9-1.8 2.1-3.5 4.3-4.4 7-1.3 2.6-1.8 5.7-1.8 8.4 0 6.2 2.2 11.5 6.2 15.9 2.1 1.8 4.8 3.6 7.4 4.9 2.5 0.9 5.2 1.3 8.3 1.3 5.8 0 11.4-2.2 15.4-6.2 4.4-4.5 6.6-9.7 6.6-15.9 0-2.6-0.4-5.7-1.8-8.4-0.9-2.6-2.6-4.8-4.8-7zM889.7 64H134.3C95.5 64 64 95.5 64 134.3V889.7c0 38.8 31.5 70.3 70.3 70.3h755.5c38.8 0 70.3-31.5 70.3-70.3V134.3C960 95.5 928.5 64 889.7 64zM108 134.3c0-14.5 11.8-26.3 26.3-26.3h755.5c14.5 0 26.3 11.8 26.3 26.3V260H108V134.3z m808 755.4c0 14.5-11.8 26.3-26.3 26.3H134.3c-14.5 0-26.3-11.8-26.3-26.3V304h808v585.7zM232.8 502.8h558.3c12.2 0 22-9.8 22-22s-9.8-22-22-22H232.8c-12.2 0-22 9.8-22 22s9.9 22 22 22zM232.8 664.9h397c12.2 0 22-9.8 22-22s-9.8-22-22-22h-397c-12.2 0-22 9.8-22 22s9.9 22 22 22zM232.8 800.5h206c12.2 0 22-9.8 22-22s-9.8-22-22-22h-206c-12.2 0-22 9.8-22 22s9.9 22 22 22z" /></svg>